<svg width="512" height="512" viewBox="0 0 512 512" xmlns="http://www.w3.org/2000/svg"><title>Kobold Paladin</title><desc>Stylised DnD Moovables SVG token: Kobold Paladin</desc><rect width="512" height="512" fill="none"/><ellipse cx="256" cy="474" rx="122" ry="20" fill="#211f24" opacity=".16"/><g stroke="#211f24" stroke-width="10" stroke-linecap="round" stroke-linejoin="round"><ellipse cx="256" cy="118" rx="70" ry="76" fill="#b64b32"/><path d="M189 198c-30 58-23 133 14 179 30 38 106 38 76 0 37-46 44-121 14-179-43 28-91 28-134 0z" fill="#b64b32"/><path d="M169 238c-43 36-66 83-70 139M343 238c43 36 66 83 70 139" fill="none" stroke="#b64b32" stroke-width="24"/><path d="M203 386l-23 78M294 386l31 78" fill="none" stroke="#b64b32" stroke-width="27"/><path d="M158 472c31-22 62-14 82 17M304 489c20-31 51-39 83-17" fill="none"/><path d="M219 121c18-13 36-13 54 0M286 121c18-13 36-13 54 0" fill="none"/><circle cx="239" cy="139" r="7" fill="#f1d25f" stroke="none"/><circle cx="303" cy="139" r="7" fill="#f1d25f" stroke="none"/><path d="M230 165c28 18 68 18 96 0" fill="none" stroke-width="7"/><path d="M176 204c48 41 130 41 178 0l-27 190c-50 42-126 42-176 0z" fill="#c7ccd1"/><path d="M216 229h80M256 207v158" fill="none" stroke="#f6dc77" stroke-width="10"/><path d="M91 76l24 24-78 320-25-8z" fill="#4b3428"/></g></svg>