<svg width="512" height="512" viewBox="0 0 512 512" xmlns="http://www.w3.org/2000/svg"><title>Bugbear Monk</title><desc>Stylised DnD Moovables SVG token: Bugbear Monk</desc><rect width="512" height="512" fill="none"/><ellipse cx="256" cy="474" rx="122" ry="20" fill="#211f24" opacity=".16"/><g stroke="#211f24" stroke-width="10" stroke-linecap="round" stroke-linejoin="round"><ellipse cx="256" cy="118" rx="70" ry="76" fill="#8b5b36"/><path d="M167 188c-30 58-23 133 14 179 30 38 150 38 120 0 37-46 44-121 14-179-43 28-135 28-178 0z" fill="#8b5b36"/><path d="M169 238c-43 36-66 83-70 139M343 238c43 36 66 83 70 139" fill="none" stroke="#8b5b36" stroke-width="24"/><path d="M203 386l-23 78M294 386l31 78" fill="none" stroke="#8b5b36" stroke-width="27"/><path d="M158 472c31-22 62-14 82 17M304 489c20-31 51-39 83-17" fill="none"/><path d="M219 121c18-13 36-13 54 0M286 121c18-13 36-13 54 0" fill="none"/><circle cx="239" cy="139" r="7" fill="#f1d25f" stroke="none"/><circle cx="303" cy="139" r="7" fill="#f1d25f" stroke="none"/><path d="M230 165c28 18 68 18 96 0" fill="none" stroke-width="7"/><path d="M177 216c44 37 116 37 160 0l-15 166c-43 27-104 27-147 0z" fill="#d18438"/><path d="M181 286h144M109 370c49-11 92-1 129 31M403 370c-49-11-92-1-129 31" fill="none" stroke="#f2d7a4" stroke-width="8"/></g></svg>