<svg width="512" height="512" viewBox="0 0 512 512" xmlns="http://www.w3.org/2000/svg"><title>Gnome Ranger</title><desc>Stylised DnD Moovables SVG token: Gnome Ranger</desc><rect width="512" height="512" fill="none"/><ellipse cx="256" cy="474" rx="122" ry="20" fill="#211f24" opacity=".16"/><g stroke="#211f24" stroke-width="10" stroke-linecap="round" stroke-linejoin="round"><ellipse cx="256" cy="118" rx="70" ry="76" fill="#d09b6d"/><path d="M189 198c-30 58-23 133 14 179 30 38 106 38 76 0 37-46 44-121 14-179-43 28-91 28-134 0z" fill="#d09b6d"/><path d="M169 238c-43 36-66 83-70 139M343 238c43 36 66 83 70 139" fill="none" stroke="#d09b6d" stroke-width="24"/><path d="M203 386l-23 78M294 386l31 78" fill="none" stroke="#d09b6d" stroke-width="27"/><path d="M158 472c31-22 62-14 82 17M304 489c20-31 51-39 83-17" fill="none"/><path d="M222 121c16-11 32-11 48 0M286 121c16-11 32-11 48 0" fill="none"/><circle cx="239" cy="139" r="6" fill="#211f24" stroke="none"/><circle cx="303" cy="139" r="6" fill="#211f24" stroke="none"/><path d="M231 164c28 16 68 16 96 0" fill="none" stroke-width="7"/><path d="M80 318c57-120 130-188 220-205M89 319c85-19 147-67 185-147" fill="none" stroke="#6b4931" stroke-width="14"/><path d="M343 112l61-21-22 61" fill="none" stroke="#d8c27a" stroke-width="10"/><path d="M187 210c42 32 115 32 157 0" fill="none" stroke="#3e6b3b" stroke-width="14"/></g></svg>