<svg width="512" height="512" viewBox="0 0 512 512" xmlns="http://www.w3.org/2000/svg"><title>Tortle Fighter</title><desc>Stylised DnD Moovables SVG token: Tortle Fighter</desc><rect width="512" height="512" fill="none"/><ellipse cx="256" cy="474" rx="122" ry="20" fill="#211f24" opacity=".16"/><g stroke="#211f24" stroke-width="10" stroke-linecap="round" stroke-linejoin="round"><ellipse cx="256" cy="288" rx="116" ry="150" fill="#485f3f"/><ellipse cx="256" cy="118" rx="70" ry="76" fill="#6f8c63"/><path d="M177 204c48 42 130 42 178 0l-21 192c-50 37-118 37-168 0z" fill="#6f8c63"/><path d="M169 238c-43 36-66 83-70 139M343 238c43 36 66 83 70 139" fill="none" stroke="#6f8c63" stroke-width="24"/><path d="M203 386l-23 78M294 386l31 78" fill="none" stroke="#6f8c63" stroke-width="27"/><path d="M158 472c31-22 62-14 82 17M304 489c20-31 51-39 83-17" fill="none"/><path d="M222 121c16-11 32-11 48 0M286 121c16-11 32-11 48 0" fill="none"/><circle cx="239" cy="139" r="6" fill="#211f24" stroke="none"/><circle cx="303" cy="139" r="6" fill="#211f24" stroke="none"/><path d="M231 164c28 16 68 16 96 0" fill="none" stroke-width="7"/><path d="M88 74l24 24-82 338-24-7z" fill="#4b3428"/><path d="M99 33l47 57-62 34z" fill="#c4c8cc"/><path d="M360 254c50-30 94-20 126 27v82c0 51-38 85-82 100-44-15-82-49-82-100v-82z" fill="#59646e"/></g></svg>