<svg width="512" height="512" viewBox="0 0 512 512" xmlns="http://www.w3.org/2000/svg"><title>Tortle Monk</title><desc>Stylised DnD Moovables SVG token: Tortle Monk</desc><rect width="512" height="512" fill="none"/><ellipse cx="256" cy="474" rx="122" ry="20" fill="#211f24" opacity=".16"/><g stroke="#211f24" stroke-width="10" stroke-linecap="round" stroke-linejoin="round"><ellipse cx="256" cy="288" rx="116" ry="150" fill="#485f3f"/><ellipse cx="256" cy="118" rx="70" ry="76" fill="#6f8c63"/><path d="M177 204c48 42 130 42 178 0l-21 192c-50 37-118 37-168 0z" fill="#6f8c63"/><path d="M169 238c-43 36-66 83-70 139M343 238c43 36 66 83 70 139" fill="none" stroke="#6f8c63" stroke-width="24"/><path d="M203 386l-23 78M294 386l31 78" fill="none" stroke="#6f8c63" stroke-width="27"/><path d="M158 472c31-22 62-14 82 17M304 489c20-31 51-39 83-17" fill="none"/><path d="M222 121c16-11 32-11 48 0M286 121c16-11 32-11 48 0" fill="none"/><circle cx="239" cy="139" r="6" fill="#211f24" stroke="none"/><circle cx="303" cy="139" r="6" fill="#211f24" stroke="none"/><path d="M231 164c28 16 68 16 96 0" fill="none" stroke-width="7"/><path d="M177 216c44 37 116 37 160 0l-15 166c-43 27-104 27-147 0z" fill="#d18438"/><path d="M181 286h144M109 370c49-11 92-1 129 31M403 370c-49-11-92-1-129 31" fill="none" stroke="#f2d7a4" stroke-width="8"/></g></svg>