<svg width="512" height="512" viewBox="0 0 512 512" xmlns="http://www.w3.org/2000/svg"><title>Orc Warlock</title><desc>Stylised DnD Moovables SVG token: Orc Warlock</desc><rect width="512" height="512" fill="none"/><ellipse cx="256" cy="474" rx="122" ry="20" fill="#211f24" opacity=".16"/><g stroke="#211f24" stroke-width="10" stroke-linecap="round" stroke-linejoin="round"><ellipse cx="256" cy="118" rx="70" ry="76" fill="#718f28"/><path d="M175 188c-30 58-23 133 14 179 30 38 134 38 104 0 37-46 44-121 14-179-43 28-119 28-162 0z" fill="#718f28"/><path d="M169 238c-43 36-66 83-70 139M343 238c43 36 66 83 70 139" fill="none" stroke="#718f28" stroke-width="24"/><path d="M203 386l-23 78M294 386l31 78" fill="none" stroke="#718f28" stroke-width="27"/><path d="M158 472c31-22 62-14 82 17M304 489c20-31 51-39 83-17" fill="none"/><path d="M219 121c18-13 36-13 54 0M286 121c18-13 36-13 54 0" fill="none"/><circle cx="239" cy="139" r="7" fill="#f1d25f" stroke="none"/><circle cx="303" cy="139" r="7" fill="#f1d25f" stroke="none"/><path d="M230 165c28 18 68 18 96 0" fill="none" stroke-width="7"/><path d="M177 207c47 38 125 38 172 0l-25 190c-49 37-111 37-160 0z" fill="#2b214b"/><circle cx="96" cy="96" r="40" fill="#8f6cff"/><path d="M75 96c14-26 28-26 42 0-14 26-28 26-42 0z" fill="none" stroke="#211f24" stroke-width="7"/></g></svg>