<svg width="512" height="512" viewBox="0 0 512 512" xmlns="http://www.w3.org/2000/svg">
<title>Banshee</title>
<desc>Stylised SVG monster icon: Banshee</desc>
<rect width="512" height="512" fill="none"/>
<g stroke="#211f24" stroke-width="10" stroke-linecap="round" stroke-linejoin="round">
<ellipse cx="256" cy="476" rx="118" ry="18" fill="#211f24" opacity=".18" stroke="none"/>
<path d="M143 178c-51 80-43 215-19 314 54-44 86-32 132 4 46-36 78-48 132-4 24-99 32-234-19-314-45 45-211 45-256 0z" fill="#226d80"/>
<path d="M166 188c54 47 168 47 222 0l-52 219c-52 45-120 45-172 0z" fill="#2d8194"/>
<path d="M156 111c0-52 40-84 100-84s100 32 100 84c-51-30-149-30-200 0z" fill="#d7f1f3"/>
<path d="M190 112c0-39 29-65 66-65s66 26 66 65c0 38-29 65-66 65s-66-27-66-65z" fill="#a7dde5"/>
<path d="M224 115c-11-13 2-29 18-16 12 11 0 32-16 23zM288 115c11-13-2-29-18-16-12 11 0 32 16 23z" fill="#142a30" stroke="none"/>
<path d="M256 126l-16 27h32z" fill="#142a30" stroke="none"/>
<ellipse cx="256" cy="161" rx="21" ry="15" fill="#142a30" stroke="none"/>
<path d="M137 230c-43 44-69 91-82 145M375 230c43 44 69 91 82 145" fill="none" stroke="#88c7d3" stroke-width="25"/>
<path d="M55 375l-29 29M64 378l-2 39M457 375l29 29M448 378l2 39" fill="none" stroke="#88c7d3" stroke-width="10"/>
<path d="M153 405c-18 30-18 58-4 88M217 423c-14 28-9 54 9 77M295 423c14 28 9 54-9 77M359 405c18 30 18 58 4 88" fill="none" stroke="#88c7d3" stroke-width="13"/>
<path d="M132 178c66-45 137-56 236 0" fill="none" stroke="#f4ffff" stroke-width="8" opacity=".8"/>

</g>
</svg>