<svg width="512" height="512" viewBox="0 0 512 512" xmlns="http://www.w3.org/2000/svg"><title>Warforged Monk</title><desc>Stylised DnD Moovables SVG token: Warforged Monk</desc><rect width="512" height="512" fill="none"/><ellipse cx="256" cy="474" rx="122" ry="20" fill="#211f24" opacity=".16"/><g stroke="#211f24" stroke-width="10" stroke-linecap="round" stroke-linejoin="round"><path d="M204 77h104l27 47-28 64H205l-28-64z" fill="#9aa2a8"/><path d="M222 94h68M214 157h92" fill="none" stroke="#56616b" stroke-width="7"/><path d="M181 191h150l42 185-64 72H213l-64-72z" fill="#7c858c"/><path d="M202 211h108M191 294h128M213 448v-97M298 448v-97" fill="none" stroke="#56616b" stroke-width="8"/><path d="M169 238c-43 36-66 83-70 139M343 238c43 36 66 83 70 139" fill="none" stroke="#899197" stroke-width="24"/><path d="M203 386l-23 78M294 386l31 78" fill="none" stroke="#899197" stroke-width="27"/><path d="M158 472c31-22 62-14 82 17M304 489c20-31 51-39 83-17" fill="none"/><circle cx="228" cy="124" r="8" fill="#78d9ff" stroke="none"/><circle cx="284" cy="124" r="8" fill="#78d9ff" stroke="none"/><path d="M177 216c44 37 116 37 160 0l-15 166c-43 27-104 27-147 0z" fill="#d18438"/><path d="M181 286h144M109 370c49-11 92-1 129 31M403 370c-49-11-92-1-129 31" fill="none" stroke="#f2d7a4" stroke-width="8"/></g></svg>