<svg width="512" height="512" viewBox="0 0 512 512" xmlns="http://www.w3.org/2000/svg"><title>Kenku Paladin</title><desc>Stylised DnD Moovables SVG token: Kenku Paladin</desc><rect width="512" height="512" fill="none"/><ellipse cx="256" cy="474" rx="122" ry="20" fill="#211f24" opacity=".16"/><g stroke="#211f24" stroke-width="10" stroke-linecap="round" stroke-linejoin="round"><ellipse cx="256" cy="118" rx="70" ry="78" fill="#33343c"/><path d="M218 122l-36 27 36 24h94l36-24-36-27z" fill="#1b1d22"/><path d="M256 119l-52 34 52 29 52-29z" fill="#c8a86a"/><path d="M189 188c-30 58-23 133 14 179 30 38 106 38 76 0 37-46 44-121 14-179-43 28-91 28-134 0z" fill="#2d2f35"/><path d="M169 238c-43 36-66 83-70 139M343 238c43 36 66 83 70 139" fill="none" stroke="#2d2f35" stroke-width="24"/><path d="M203 386l-23 78M294 386l31 78" fill="none" stroke="#2d2f35" stroke-width="27"/><path d="M158 472c31-22 62-14 82 17M304 489c20-31 51-39 83-17" fill="none"/><circle cx="232" cy="126" r="8" fill="#f1d25f" stroke="none"/><circle cx="288" cy="126" r="8" fill="#f1d25f" stroke="none"/><path d="M176 204c48 41 130 41 178 0l-27 190c-50 42-126 42-176 0z" fill="#c7ccd1"/><path d="M216 229h80M256 207v158" fill="none" stroke="#f6dc77" stroke-width="10"/><path d="M91 76l24 24-78 320-25-8z" fill="#4b3428"/></g></svg>