<svg width="512" height="512" viewBox="0 0 512 512" xmlns="http://www.w3.org/2000/svg"><title>Air Genasi Monk</title><desc>Stylised DnD Moovables SVG token: Air Genasi Monk</desc><rect width="512" height="512" fill="none"/><ellipse cx="256" cy="474" rx="122" ry="20" fill="#211f24" opacity=".16"/><g stroke="#211f24" stroke-width="10" stroke-linecap="round" stroke-linejoin="round"><path d="M205 75c34-58 66-37 55-2 31-40 66-9 36 35 37-8 52 32 7 61H211c-41-22-27-58 9-52-33-38-1-69 32-42z" fill="#e8fcff" opacity=".48"/><ellipse cx="256" cy="118" rx="70" ry="76" fill="#b9e4ec"/><path d="M189 188c-30 58-23 133 14 179 30 38 106 38 76 0 37-46 44-121 14-179-43 28-91 28-134 0z" fill="#b9e4ec"/><path d="M169 238c-43 36-66 83-70 139M343 238c43 36 66 83 70 139" fill="none" stroke="#b9e4ec" stroke-width="24"/><path d="M203 386l-23 78M294 386l31 78" fill="none" stroke="#b9e4ec" stroke-width="27"/><path d="M158 472c31-22 62-14 82 17M304 489c20-31 51-39 83-17" fill="none"/><path d="M222 121c16-11 32-11 48 0M286 121c16-11 32-11 48 0" fill="none"/><circle cx="239" cy="139" r="6" fill="#211f24" stroke="none"/><circle cx="303" cy="139" r="6" fill="#211f24" stroke="none"/><path d="M231 164c28 16 68 16 96 0" fill="none" stroke-width="7"/><path d="M177 216c44 37 116 37 160 0l-15 166c-43 27-104 27-147 0z" fill="#d18438"/><path d="M181 286h144M109 370c49-11 92-1 129 31M403 370c-49-11-92-1-129 31" fill="none" stroke="#f2d7a4" stroke-width="8"/></g></svg>