<svg width="512" height="512" viewBox="0 0 512 512" xmlns="http://www.w3.org/2000/svg">
<title>Balor</title>
<desc>Stylised fantasy SVG icon: Balor</desc>
<rect width="512" height="512" fill="none"/>
<g stroke="#211f24" stroke-width="10" stroke-linecap="round" stroke-linejoin="round">
<ellipse cx="256" cy="474" rx="124" ry="20" fill="#211f24" opacity=".16" stroke="none"/>
<path d="M128 173c-59-68-111-85-158-51 22 76 79 123 161 135z" fill="#5e1521"/>
<path d="M384 173c59-68 111-85 158-51-22 76-79 123-161 135z" fill="#5e1521"/>
<path d="M150 172c-38 78-29 181 17 239 37 46 141 46 178 0 46-58 55-161 17-239-51 35-211 35-102 0z" fill="#7d1c24"/>
<path d="M178 204c52 45 162 45 214 0l-21 216c-73 45-181 45-254 0z" fill="#a52721"/>
<path d="M202 407l-28 77M305 407l35 77" fill="none" stroke="#7d1c24" stroke-width="31"/>
<path d="M151 489c38-27 76-16 99 20M316 509c24-36 62-47 99-20" fill="none"/>
<path d="M174 91c0-53 38-89 82-89s82 36 82 89c0 51-36 85-82 85s-82-34-82-85z" fill="#8c2425"/>
<path d="M206 46l-58-61 87 28M306 46l58-61-87 28" fill="#d0ad63"/>
<path d="M219 109c17-16 36-17 57-2M293 107c21-15 40-14 57 2" fill="none" stroke-width="9"/>
<path d="M240 129h1M314 129h1" stroke="#ffd45a" stroke-width="13"/>
<path d="M258 144l-18 31h38z" fill="#211f24" stroke="none"/>
<path d="M222 171c36 24 81 24 117 0" fill="none" stroke-width="8"/>
<path d="M158 250c-47 31-79 88-93 166M370 250c46 31 79 88 93 166" fill="none" stroke="#7d1c24" stroke-width="28"/>
<path d="M65 416l-35 32M463 416l35 32" fill="none" stroke="#7d1c24" stroke-width="13"/>
<path d="M106 40c48 56 52 113 14 171M408 40c-48 56-52 113-14 171" fill="none" stroke="#f36c21" stroke-width="14"/>
<path d="M83 300c-22-42-16-80 18-115 15 44 8 82-21 115M430 300c22-42 16-80-18-115-15 44-8 82 21 115" fill="#f36c21"/>

</g>
</svg>