<svg width="512" height="512" viewBox="0 0 512 512" xmlns="http://www.w3.org/2000/svg">
<title>Shadow Demon</title>
<desc>Stylised fantasy SVG icon: Shadow Demon</desc>
<rect width="512" height="512" fill="none"/>
<g stroke="#211f24" stroke-width="10" stroke-linecap="round" stroke-linejoin="round">
<ellipse cx="256" cy="474" rx="124" ry="20" fill="#211f24" opacity=".16" stroke="none"/>
<path d="M149 191c-55-64-105-85-151-58 17 77 70 129 150 150z" fill="#24183c" opacity=".88"/>
<path d="M363 191c55-64 105-85 151-58-17 77-70 129-150 150z" fill="#24183c" opacity=".88"/>
<path d="M156 183c-49 81-42 205-7 299 50-43 86-41 107-11 21-30 57-32 107 11 35-94 42-218-7-299-45 44-155 44-200 0z" fill="#2b214b" opacity=".92"/>
<path d="M190 215c38 35 116 35 154 0l-29 198c-35 33-95 33-130 0z" fill="#171229" opacity=".96"/>
<path d="M188 99c0-50 36-83 68-83s68 33 68 83c0 47-31 78-68 78s-68-31-68-78z" fill="#2c2448"/>
<path d="M211 63l-49-55 76 28M301 63l49-55-76 28" fill="#171229"/>
<path d="M225 116c16-17 34-17 53 0M287 116c19-17 37-17 53 0" fill="none" stroke="#9a75ff" stroke-width="8"/>
<path d="M239 139h1M302 139h1" stroke="#d7c6ff" stroke-width="13"/>
<path d="M258 151l-17 31h36z" fill="#05040a" stroke="none"/>
<path d="M225 174c30 19 67 19 97 0" fill="none" stroke="#9a75ff" stroke-width="7"/>
<path d="M156 250c-49 26-82 75-96 146M356 250c49 26 82 75 96 146" fill="none" stroke="#2b214b" stroke-width="26"/>
<path d="M60 396l-34 32M452 396l34 32" fill="none" stroke="#2b214b" stroke-width="12"/>
<path d="M181 423c-22 31-22 58-2 87M255 432c-19 35-17 61 5 82M329 423c22 31 22 58 2 87" fill="none" stroke="#2b214b" stroke-width="14"/>
<path d="M135 199c52-28 95-35 129-21 35-14 78-7 130 21" fill="none" stroke="#6754aa" stroke-width="8" opacity=".65"/>

</g>
</svg>