<svg width="512" height="512" viewBox="0 0 512 512" xmlns="http://www.w3.org/2000/svg"><title>Lizardfolk</title><desc>Stylised DnD Moovables SVG token: Lizardfolk</desc><rect width="512" height="512" fill="none"/><ellipse cx="256" cy="474" rx="122" ry="20" fill="#211f24" opacity=".16"/><g stroke="#211f24" stroke-width="10" stroke-linecap="round" stroke-linejoin="round"><path d="M205 70l16-37 18 41 18-43 19 43 18-37 17 43z" fill="#d2b06a"/><ellipse cx="256" cy="118" rx="70" ry="76" fill="#5f8b54"/><path d="M189 188c-30 58-23 133 14 179 30 38 106 38 76 0 37-46 44-121 14-179-43 28-91 28-134 0z" fill="#5f8b54"/><path d="M169 238c-43 36-66 83-70 139M343 238c43 36 66 83 70 139" fill="none" stroke="#5f8b54" stroke-width="24"/><path d="M203 386l-23 78M294 386l31 78" fill="none" stroke="#5f8b54" stroke-width="27"/><path d="M158 472c31-22 62-14 82 17M304 489c20-31 51-39 83-17" fill="none"/><path d="M219 121c18-13 36-13 54 0M286 121c18-13 36-13 54 0" fill="none"/><circle cx="239" cy="139" r="7" fill="#f1d25f" stroke="none"/><circle cx="303" cy="139" r="7" fill="#f1d25f" stroke="none"/><path d="M230 165c28 18 68 18 96 0" fill="none" stroke-width="7"/><circle cx="418" cy="88" r="34" fill="#4b5563"/><path d="M402 88h32M418 72v32" fill="none" stroke="#fff" stroke-width="8"/></g></svg>