<svg width="512" height="512" viewBox="0 0 512 512" xmlns="http://www.w3.org/2000/svg"><title>Dwarf</title><desc>Stylised DnD Moovables SVG token: Dwarf</desc><rect width="512" height="512" fill="none"/><ellipse cx="256" cy="474" rx="122" ry="20" fill="#211f24" opacity=".16"/><g stroke="#211f24" stroke-width="10" stroke-linecap="round" stroke-linejoin="round"><path d="M194 153c29 63 103 63 132 0v84c-37 45-91 45-128 0z" fill="#6b3f25"/><ellipse cx="256" cy="118" rx="70" ry="76" fill="#b9794a"/><path d="M175 188c-30 58-23 133 14 179 30 38 134 38 104 0 37-46 44-121 14-179-43 28-119 28-162 0z" fill="#b9794a"/><path d="M169 238c-43 36-66 83-70 139M343 238c43 36 66 83 70 139" fill="none" stroke="#b9794a" stroke-width="24"/><path d="M203 386l-23 78M294 386l31 78" fill="none" stroke="#b9794a" stroke-width="27"/><path d="M158 472c31-22 62-14 82 17M304 489c20-31 51-39 83-17" fill="none"/><path d="M222 121c16-11 32-11 48 0M286 121c16-11 32-11 48 0" fill="none"/><circle cx="239" cy="139" r="6" fill="#211f24" stroke="none"/><circle cx="303" cy="139" r="6" fill="#211f24" stroke="none"/><path d="M231 164c28 16 68 16 96 0" fill="none" stroke-width="7"/><circle cx="418" cy="88" r="34" fill="#4b5563"/><path d="M402 88h32M418 72v32" fill="none" stroke="#fff" stroke-width="8"/></g></svg>