<svg width="512" height="512" viewBox="0 0 512 512" xmlns="http://www.w3.org/2000/svg"><title>Human Barbarian</title><desc>Stylised DnD Moovables SVG token: Human Barbarian</desc><rect width="512" height="512" fill="none"/><ellipse cx="256" cy="474" rx="122" ry="20" fill="#211f24" opacity=".16"/><g stroke="#211f24" stroke-width="10" stroke-linecap="round" stroke-linejoin="round"><ellipse cx="256" cy="118" rx="70" ry="76" fill="#c88b64"/><path d="M189 188c-30 58-23 133 14 179 30 38 106 38 76 0 37-46 44-121 14-179-43 28-91 28-134 0z" fill="#c88b64"/><path d="M169 238c-43 36-66 83-70 139M343 238c43 36 66 83 70 139" fill="none" stroke="#c88b64" stroke-width="24"/><path d="M203 386l-23 78M294 386l31 78" fill="none" stroke="#c88b64" stroke-width="27"/><path d="M158 472c31-22 62-14 82 17M304 489c20-31 51-39 83-17" fill="none"/><path d="M222 121c16-11 32-11 48 0M286 121c16-11 32-11 48 0" fill="none"/><circle cx="239" cy="139" r="6" fill="#211f24" stroke="none"/><circle cx="303" cy="139" r="6" fill="#211f24" stroke="none"/><path d="M231 164c28 16 68 16 96 0" fill="none" stroke-width="7"/><path d="M87 78l23 24-70 288-25-9z" fill="#6b4931"/><path d="M94 39l52 74-72-19z" fill="#8f969b"/><path d="M184 210c48 32 124 32 172 0" fill="none" stroke="#7b3028" stroke-width="15"/></g></svg>